<?xml version="1.0" encoding="UTF-8"?>
<svg xmlns="http://www.w3.org/2000/svg" xmlns:xlink="http://www.w3.org/1999/xlink" width="100px" height="100px" viewBox="0 0 100 100" version="1.1">
<g id="surface1">
<path style=" stroke:none;fill-rule:nonzero;fill:rgb(0%,0%,0%);fill-opacity:1;" d="M 20.800781 32.398438 C 23.042969 32.398438 25.289062 32.398438 27.601562 32.398438 C 30.054688 39.542969 32.234375 46.765625 34.398438 54 C 35.136719 52.894531 35.457031 52.128906 35.835938 50.878906 C 35.953125 50.488281 36.074219 50.097656 36.195312 49.695312 C 36.320312 49.277344 36.445312 48.855469 36.578125 48.421875 C 36.707031 47.992188 36.839844 47.558594 36.972656 47.117188 C 37.394531 45.734375 37.808594 44.355469 38.226562 42.976562 C 38.644531 41.59375 39.0625 40.210938 39.480469 38.828125 C 39.742188 37.96875 40 37.109375 40.261719 36.25 C 40.378906 35.859375 40.496094 35.472656 40.617188 35.070312 C 40.71875 34.726562 40.824219 34.386719 40.929688 34.03125 C 41.199219 33.199219 41.199219 33.199219 41.601562 32.398438 C 43.710938 32.398438 45.824219 32.398438 48 32.398438 C 48.914062 35.332031 49.824219 38.265625 50.734375 41.199219 C 51.042969 42.195312 51.355469 43.195312 51.664062 44.191406 C 52.113281 45.625 52.554688 47.058594 53 48.492188 C 53.140625 48.941406 53.28125 49.386719 53.425781 49.847656 C 53.550781 50.265625 53.679688 50.679688 53.8125 51.109375 C 53.984375 51.65625 53.984375 51.65625 54.15625 52.21875 C 54.398438 53.199219 54.398438 53.199219 54.398438 54.800781 C 54.664062 54.800781 54.929688 54.800781 55.199219 54.800781 C 55.242188 54.5625 55.285156 54.324219 55.328125 54.082031 C 55.824219 51.457031 56.511719 48.933594 57.304688 46.382812 C 57.425781 45.980469 57.550781 45.578125 57.675781 45.164062 C 58.066406 43.890625 58.457031 42.621094 58.851562 41.351562 C 59.117188 40.480469 59.382812 39.613281 59.648438 38.746094 C 60.296875 36.628906 60.949219 34.515625 61.601562 32.398438 C 63.976562 32.398438 66.351562 32.398438 68.800781 32.398438 C 68.113281 35.859375 67.0625 39.199219 66.023438 42.566406 C 65.832031 43.203125 65.636719 43.835938 65.441406 44.472656 C 65.035156 45.796875 64.628906 47.121094 64.222656 48.445312 C 63.703125 50.136719 63.183594 51.832031 62.667969 53.523438 C 62.167969 55.148438 61.671875 56.769531 61.175781 58.390625 C 61.082031 58.699219 60.988281 59.007812 60.890625 59.324219 C 60.621094 60.195312 60.355469 61.066406 60.085938 61.941406 C 59.933594 62.4375 59.78125 62.933594 59.625 63.441406 C 59.230469 64.699219 58.816406 65.949219 58.398438 67.199219 C 56.421875 67.199219 54.441406 67.199219 52.398438 67.199219 C 49.8125 59.484375 47.253906 51.761719 44.800781 44 C 43.808594 46.570312 42.941406 49.167969 42.097656 51.785156 C 41.8125 52.667969 41.523438 53.546875 41.238281 54.429688 C 40.792969 55.808594 40.34375 57.191406 39.898438 58.570312 C 39.464844 59.910156 39.03125 61.246094 38.597656 62.585938 C 38.460938 63.003906 38.328125 63.417969 38.191406 63.847656 C 38.066406 64.230469 37.941406 64.613281 37.8125 65.007812 C 37.703125 65.34375 37.59375 65.679688 37.484375 66.03125 C 37.199219 66.800781 37.199219 66.800781 36.800781 67.199219 C 35.859375 67.230469 34.917969 67.234375 33.976562 67.226562 C 33.199219 67.21875 33.199219 67.21875 32.410156 67.214844 C 32.011719 67.210938 31.613281 67.203125 31.199219 67.199219 C 30.050781 64.707031 29.269531 62.136719 28.480469 59.507812 C 28.335938 59.035156 28.191406 58.558594 28.042969 58.070312 C 27.664062 56.8125 27.285156 55.550781 26.90625 54.289062 C 26.527344 53.035156 26.148438 51.78125 25.769531 50.527344 C 25.183594 48.589844 24.597656 46.648438 24.015625 44.707031 C 23.5 42.988281 22.976562 41.269531 22.449219 39.550781 C 22.335938 39.183594 22.222656 38.8125 22.105469 38.429688 C 21.898438 37.753906 21.6875 37.074219 21.476562 36.398438 C 21.046875 34.992188 20.800781 33.886719 20.800781 32.398438 Z M 20.800781 32.398438 "/>
<path style=" stroke:none;fill-rule:nonzero;fill:rgb(0%,47.843137%,100%);fill-opacity:1;" d="M 76.398438 56.800781 C 77.917969 57.519531 78.609375 58.117188 79.550781 59.5 C 80.09375 61.074219 80.296875 62.355469 80 64 C 79.1875 65.535156 78.359375 66.800781 76.800781 67.601562 C 75 68.042969 73.632812 68.15625 71.875 67.523438 C 70.363281 66.503906 69.382812 65.753906 68.800781 64 C 68.582031 62.125 68.621094 60.757812 69.476562 59.050781 C 71.503906 56.746094 73.414062 56.375 76.398438 56.800781 Z M 76.398438 56.800781 "/>
</g>
</svg>
